<svg id="visual" viewBox="0 0 960 540" width="960" height="540" xmlns="http://www.w3.org/2000/svg" xmlns:xlink="http://www.w3.org/1999/xlink" version="1.1"><rect x="0" y="0" width="960" height="540" fill="#dbeafe"></rect><path d="M0 119L22.8 119C45.7 119 91.3 119 137 118C182.7 117 228.3 115 274 112.2C319.7 109.3 365.3 105.7 411.2 100.2C457 94.7 503 87.3 548.8 83.3C594.7 79.3 640.3 78.7 686 82.3C731.7 86 777.3 94 823 100.5C868.7 107 914.3 112 937.2 114.5L960 117L960 0L937.2 0C914.3 0 868.7 0 823 0C777.3 0 731.7 0 686 0C640.3 0 594.7 0 548.8 0C503 0 457 0 411.2 0C365.3 0 319.7 0 274 0C228.3 0 182.7 0 137 0C91.3 0 45.7 0 22.8 0L0 0Z" fill="#dbeafe"></path><path d="M0 69L22.8 70.7C45.7 72.3 91.3 75.7 137 79.7C182.7 83.7 228.3 88.3 274 90.2C319.7 92 365.3 91 411.2 85.2C457 79.3 503 68.7 548.8 65C594.7 61.3 640.3 64.7 686 67.3C731.7 70 777.3 72 823 76.2C868.7 80.3 914.3 86.7 937.2 89.8L960 93L960 0L937.2 0C914.3 0 868.7 0 823 0C777.3 0 731.7 0 686 0C640.3 0 594.7 0 548.8 0C503 0 457 0 411.2 0C365.3 0 319.7 0 274 0C228.3 0 182.7 0 137 0C91.3 0 45.7 0 22.8 0L0 0Z" fill="#b4cbec"></path><path d="M0 77L22.8 72.2C45.7 67.3 91.3 57.7 137 57.8C182.7 58 228.3 68 274 67.3C319.7 66.7 365.3 55.3 411.2 49.7C457 44 503 44 548.8 44.5C594.7 45 640.3 46 686 49.5C731.7 53 777.3 59 823 60.8C868.7 62.7 914.3 60.3 937.2 59.2L960 58L960 0L937.2 0C914.3 0 868.7 0 823 0C777.3 0 731.7 0 686 0C640.3 0 594.7 0 548.8 0C503 0 457 0 411.2 0C365.3 0 319.7 0 274 0C228.3 0 182.7 0 137 0C91.3 0 45.7 0 22.8 0L0 0Z" fill="#8eadda"></path><path d="M0 56L22.8 53C45.7 50 91.3 44 137 44C182.7 44 228.3 50 274 52.7C319.7 55.3 365.3 54.7 411.2 55C457 55.3 503 56.7 548.8 53.7C594.7 50.7 640.3 43.3 686 39.8C731.7 36.3 777.3 36.7 823 37.5C868.7 38.3 914.3 39.7 937.2 40.3L960 41L960 0L937.2 0C914.3 0 868.7 0 823 0C777.3 0 731.7 0 686 0C640.3 0 594.7 0 548.8 0C503 0 457 0 411.2 0C365.3 0 319.7 0 274 0C228.3 0 182.7 0 137 0C91.3 0 45.7 0 22.8 0L0 0Z" fill="#6890c8"></path><path d="M0 32L22.8 30.3C45.7 28.7 91.3 25.3 137 24.5C182.7 23.7 228.3 25.3 274 26.8C319.7 28.3 365.3 29.7 411.2 30.2C457 30.7 503 30.3 548.8 29.2C594.7 28 640.3 26 686 24.2C731.7 22.3 777.3 20.7 823 21.7C868.7 22.7 914.3 26.3 937.2 28.2L960 30L960 0L937.2 0C914.3 0 868.7 0 823 0C777.3 0 731.7 0 686 0C640.3 0 594.7 0 548.8 0C503 0 457 0 411.2 0C365.3 0 319.7 0 274 0C228.3 0 182.7 0 137 0C91.3 0 45.7 0 22.8 0L0 0Z" fill="#3f73b6"></path></svg>