<svg id="visual" viewBox="0 0 900 200" width="900" height="200" xmlns="http://www.w3.org/2000/svg" xmlns:xlink="http://www.w3.org/1999/xlink" version="1.1"><path d="M0 71L15 66.5C30 62 60 53 90 51C120 49 150 54 180 58.2C210 62.3 240 65.7 270 67.5C300 69.3 330 69.7 360 65.8C390 62 420 54 450 50.5C480 47 510 48 540 47.8C570 47.7 600 46.3 630 46C660 45.7 690 46.3 720 47.7C750 49 780 51 810 55.5C840 60 870 67 885 70.5L900 74L900 0L885 0C870 0 840 0 810 0C780 0 750 0 720 0C690 0 660 0 630 0C600 0 570 0 540 0C510 0 480 0 450 0C420 0 390 0 360 0C330 0 300 0 270 0C240 0 210 0 180 0C150 0 120 0 90 0C60 0 30 0 15 0L0 0Z" fill="#6ec262"></path><path d="M0 54L15 53.3C30 52.7 60 51.3 90 51.3C120 51.3 150 52.7 180 50.8C210 49 240 44 270 42C300 40 330 41 360 41.3C390 41.7 420 41.3 450 43.7C480 46 510 51 540 52.5C570 54 600 52 630 50.2C660 48.3 690 46.7 720 47C750 47.3 780 49.7 810 51.7C840 53.7 870 55.3 885 56.2L900 57L900 0L885 0C870 0 840 0 810 0C780 0 750 0 720 0C690 0 660 0 630 0C600 0 570 0 540 0C510 0 480 0 450 0C420 0 390 0 360 0C330 0 300 0 270 0C240 0 210 0 180 0C150 0 120 0 90 0C60 0 30 0 15 0L0 0Z" fill="#00bfb4"></path><path d="M0 46L15 45.2C30 44.3 60 42.7 90 39.8C120 37 150 33 180 31.2C210 29.3 240 29.7 270 30.8C300 32 330 34 360 36.3C390 38.7 420 41.3 450 42C480 42.7 510 41.3 540 41.7C570 42 600 44 630 42.3C660 40.7 690 35.3 720 35.5C750 35.7 780 41.3 810 42C840 42.7 870 38.3 885 36.2L900 34L900 0L885 0C870 0 840 0 810 0C780 0 750 0 720 0C690 0 660 0 630 0C600 0 570 0 540 0C510 0 480 0 450 0C420 0 390 0 360 0C330 0 300 0 270 0C240 0 210 0 180 0C150 0 120 0 90 0C60 0 30 0 15 0L0 0Z" fill="#00adde"></path><path d="M0 20L15 22C30 24 60 28 90 28.8C120 29.7 150 27.3 180 26.8C210 26.3 240 27.7 270 28C300 28.3 330 27.7 360 28.3C390 29 420 31 450 31.5C480 32 510 31 540 31.3C570 31.7 600 33.3 630 33C660 32.7 690 30.3 720 29.5C750 28.7 780 29.3 810 29.5C840 29.7 870 29.3 885 29.2L900 29L900 0L885 0C870 0 840 0 810 0C780 0 750 0 720 0C690 0 660 0 630 0C600 0 570 0 540 0C510 0 480 0 450 0C420 0 390 0 360 0C330 0 300 0 270 0C240 0 210 0 180 0C150 0 120 0 90 0C60 0 30 0 15 0L0 0Z" fill="#0092f5"></path><path d="M0 19L15 18C30 17 60 15 90 14.5C120 14 150 15 180 16.3C210 17.7 240 19.3 270 18.7C300 18 330 15 360 13.5C390 12 420 12 450 11.8C480 11.7 510 11.3 540 11C570 10.7 600 10.3 630 10.5C660 10.7 690 11.3 720 12.7C750 14 780 16 810 16.2C840 16.3 870 14.7 885 13.8L900 13L900 0L885 0C870 0 840 0 810 0C780 0 750 0 720 0C690 0 660 0 630 0C600 0 570 0 540 0C510 0 480 0 450 0C420 0 390 0 360 0C330 0 300 0 270 0C240 0 210 0 180 0C150 0 120 0 90 0C60 0 30 0 15 0L0 0Z" fill="#6366f1"></path></svg>