<svg id="visual" viewBox="0 0 900 200" width="900" height="200" xmlns="http://www.w3.org/2000/svg" xmlns:xlink="http://www.w3.org/1999/xlink" version="1.1"><path d="M0 127L15 131.5C30 136 60 145 90 147C120 149 150 144 180 139.8C210 135.7 240 132.3 270 130.5C300 128.7 330 128.3 360 132.2C390 136 420 144 450 147.5C480 151 510 150 540 150.2C570 150.3 600 151.7 630 152C660 152.3 690 151.7 720 150.3C750 149 780 147 810 142.5C840 138 870 131 885 127.5L900 124L900 201L885 201C870 201 840 201 810 201C780 201 750 201 720 201C690 201 660 201 630 201C600 201 570 201 540 201C510 201 480 201 450 201C420 201 390 201 360 201C330 201 300 201 270 201C240 201 210 201 180 201C150 201 120 201 90 201C60 201 30 201 15 201L0 201Z" fill="#6ec262"></path><path d="M0 144L15 144.7C30 145.3 60 146.7 90 146.7C120 146.7 150 145.3 180 147.2C210 149 240 154 270 156C300 158 330 157 360 156.7C390 156.3 420 156.7 450 154.3C480 152 510 147 540 145.5C570 144 600 146 630 147.8C660 149.7 690 151.3 720 151C750 150.7 780 148.3 810 146.3C840 144.3 870 142.7 885 141.8L900 141L900 201L885 201C870 201 840 201 810 201C780 201 750 201 720 201C690 201 660 201 630 201C600 201 570 201 540 201C510 201 480 201 450 201C420 201 390 201 360 201C330 201 300 201 270 201C240 201 210 201 180 201C150 201 120 201 90 201C60 201 30 201 15 201L0 201Z" fill="#51d5af"></path><path d="M0 152L15 152.8C30 153.7 60 155.3 90 158.2C120 161 150 165 180 166.8C210 168.7 240 168.3 270 167.2C300 166 330 164 360 161.7C390 159.3 420 156.7 450 156C480 155.3 510 156.7 540 156.3C570 156 600 154 630 155.7C660 157.3 690 162.7 720 162.5C750 162.3 780 156.7 810 156C840 155.3 870 159.7 885 161.8L900 164L900 201L885 201C870 201 840 201 810 201C780 201 750 201 720 201C690 201 660 201 630 201C600 201 570 201 540 201C510 201 480 201 450 201C420 201 390 201 360 201C330 201 300 201 270 201C240 201 210 201 180 201C150 201 120 201 90 201C60 201 30 201 15 201L0 201Z" fill="#75e2e6"></path><path d="M0 178L15 176C30 174 60 170 90 169.2C120 168.3 150 170.7 180 171.2C210 171.7 240 170.3 270 170C300 169.7 330 170.3 360 169.7C390 169 420 167 450 166.5C480 166 510 167 540 166.7C570 166.3 600 164.7 630 165C660 165.3 690 167.7 720 168.5C750 169.3 780 168.7 810 168.5C840 168.3 870 168.7 885 168.8L900 169L900 201L885 201C870 201 840 201 810 201C780 201 750 201 720 201C690 201 660 201 630 201C600 201 570 201 540 201C510 201 480 201 450 201C420 201 390 201 360 201C330 201 300 201 270 201C240 201 210 201 180 201C150 201 120 201 90 201C60 201 30 201 15 201L0 201Z" fill="#b9ebff"></path><path d="M0 179L15 180C30 181 60 183 90 183.5C120 184 150 183 180 181.7C210 180.3 240 178.7 270 179.3C300 180 330 183 360 184.5C390 186 420 186 450 186.2C480 186.3 510 186.7 540 187C570 187.3 600 187.7 630 187.5C660 187.3 690 186.7 720 185.3C750 184 780 182 810 181.8C840 181.7 870 183.3 885 184.2L900 185L900 201L885 201C870 201 840 201 810 201C780 201 750 201 720 201C690 201 660 201 630 201C600 201 570 201 540 201C510 201 480 201 450 201C420 201 390 201 360 201C330 201 300 201 270 201C240 201 210 201 180 201C150 201 120 201 90 201C60 201 30 201 15 201L0 201Z" fill="#eff6ff"></path></svg>