<svg id="visual" viewBox="0 0 960 540" width="960" height="540" xmlns="http://www.w3.org/2000/svg" xmlns:xlink="http://www.w3.org/1999/xlink" version="1.1"><rect width="960" height="540" fill="#DBEAFE"></rect><g><g transform="translate(499 519)"><path d="M58.9 -42.5C73.2 -29 79.5 -4.7 72.9 13.6C66.3 31.9 46.8 44.2 27.2 51.8C7.7 59.4 -11.8 62.3 -31.3 56.3C-50.8 50.3 -70.2 35.4 -74.9 16.6C-79.6 -2.2 -69.6 -24.8 -54.6 -38.5C-39.7 -52.1 -19.8 -56.8 1.2 -57.8C22.3 -58.7 44.6 -56 58.9 -42.5Z" fill="#abcbf7"></path></g><g transform="translate(648 131)"><path d="M13.2 -11C16.7 -6.1 18.8 -0.7 17.7 4C16.7 8.7 12.3 12.7 7 15.6C1.8 18.5 -4.5 20.4 -8.9 18.3C-13.2 16.3 -15.7 10.2 -17 4C-18.3 -2.2 -18.5 -8.5 -15.4 -13.3C-12.4 -18.1 -6.2 -21.4 -0.7 -20.8C4.8 -20.3 9.7 -15.9 13.2 -11Z" fill="#abcbf7"></path></g><g transform="translate(95 311)"><path d="M17 -12.5C21.5 -7.9 24.3 -0.8 23 5.4C21.7 11.6 16.2 17 9.5 20.5C2.8 24 -5.2 25.7 -10.2 22.7C-15.2 19.7 -17.2 12 -18.4 4.8C-19.5 -2.4 -19.8 -9.3 -16.6 -13.6C-13.4 -17.9 -6.7 -19.7 -0.3 -19.5C6.2 -19.3 12.4 -17.1 17 -12.5Z" fill="#abcbf7"></path></g><g transform="translate(798 275)"><path d="M27.7 -21.8C35.4 -12.5 40.6 -1 38.7 9.3C36.7 19.7 27.5 28.9 16.6 34C5.7 39.1 -7.1 40.1 -15.9 35C-24.7 30 -29.6 18.9 -32.3 7.2C-35.1 -4.4 -35.8 -16.7 -30 -25.6C-24.3 -34.5 -12.1 -40 -1.1 -39.1C10 -38.3 20.1 -31.1 27.7 -21.8Z" fill="#abcbf7"></path></g><g transform="translate(902 448)"><path d="M36.7 -29.7C47.7 -15.6 56.7 -0.3 55.2 15.1C53.7 30.6 41.7 46.1 26.1 53.3C10.5 60.4 -8.7 59.1 -21.2 50.5C-33.7 42 -39.5 26.2 -42.3 10.6C-45.1 -4.9 -44.8 -20.2 -37.3 -33.6C-29.7 -47 -14.8 -58.5 -1 -57.7C12.9 -56.9 25.8 -43.9 36.7 -29.7Z" fill="#abcbf7"></path></g><g transform="translate(414 87)"><path d="M25.1 -19.1C31 -12.6 33.1 -2.3 30.2 5.4C27.2 13 19.2 18 11.1 21.2C3.1 24.3 -4.9 25.6 -11.3 22.8C-17.6 20 -22.3 13.1 -24.9 4.8C-27.5 -3.5 -28 -13.1 -23.5 -19.3C-19 -25.4 -9.5 -28.2 0.1 -28.2C9.6 -28.3 19.2 -25.6 25.1 -19.1Z" fill="#abcbf7"></path></g><g transform="translate(615 354)"><path d="M25.7 -22.1C31.2 -13.5 32.4 -2.9 29.9 6.3C27.4 15.6 21.3 23.6 13.1 27.7C4.9 31.9 -5.4 32.2 -13.5 28.2C-21.6 24.3 -27.6 16 -31.2 5.5C-34.8 -4.9 -36.2 -17.4 -30.6 -26C-25 -34.6 -12.5 -39.2 -1.2 -38.3C10 -37.3 20.1 -30.7 25.7 -22.1Z" fill="#abcbf7"></path></g><g transform="translate(290 374)"><path d="M41.4 -31.8C49.9 -22.3 50.6 -5.3 46.6 9.9C42.6 25.2 33.8 38.6 21.7 44.1C9.5 49.7 -6.1 47.3 -20.6 41C-35.2 34.7 -48.8 24.5 -52 11.5C-55.2 -1.4 -48 -17 -37.6 -27C-27.2 -37 -13.6 -41.4 1.4 -42.5C16.4 -43.6 32.8 -41.4 41.4 -31.8Z" fill="#abcbf7"></path></g><g transform="translate(910 59)"><path d="M32.7 -24.1C41.9 -14.5 48.7 -0.9 47.4 13.3C46.2 27.5 36.9 42.4 24.1 47.7C11.3 52.9 -5 48.5 -18.8 41.1C-32.6 33.6 -44 23.1 -46.2 11.2C-48.4 -0.7 -41.3 -14 -32.1 -23.6C-22.8 -33.2 -11.4 -39.1 0.2 -39.2C11.7 -39.4 23.4 -33.7 32.7 -24.1Z" fill="#abcbf7"></path></g><g transform="translate(72 20)"><path d="M41.1 -35.9C51.3 -20.1 56.1 -3.1 52.6 12C49.1 27.1 37.4 40.2 21.8 49.4C6.1 58.5 -13.5 63.7 -30.2 57.6C-46.8 51.5 -60.5 34.2 -64.5 15.2C-68.5 -3.9 -62.8 -24.7 -50.4 -41.1C-38.1 -57.4 -19 -69.3 -1.8 -67.9C15.5 -66.5 31 -51.8 41.1 -35.9Z" fill="#abcbf7"></path></g><g transform="translate(13 524)"><path d="M54.5 -43.1C67.8 -26.8 73.7 -4.3 68.2 13.8C62.6 31.8 45.5 45.5 27.7 52C9.8 58.5 -8.9 57.9 -27.1 51.1C-45.2 44.3 -62.9 31.4 -69.4 12.9C-76 -5.5 -71.4 -29.4 -58 -45.7C-44.5 -62 -22.3 -70.8 -0.8 -70.1C20.6 -69.5 41.2 -59.4 54.5 -43.1Z" fill="#abcbf7"></path></g></g></svg>